{
  "asset": {
    "generator": "Khronos glTF Blender I/O v3.6.27",
    "version": "2.0"
  },
  "extensionsUsed": ["KHR_materials_specular", "KHR_materials_ior"],
  "scene": 0,
  "scenes": [
    {
      "name": "Scene",
      "nodes": [0, 1]
    }
  ],
  "nodes": [
    {
      "mesh": 0,
      "name": "Vue",
      "scale": [4.128480911254883, 4.128480911254883, 4.128480911254883],
      "translation": [
        0.005779797211289406, 5.559510707855225, 0.6818264126777649
      ]
    },
    {
      "mesh": 1,
      "name": "Vue.001",
      "scale": [4.128480911254883, 4.128480911254883, 4.128480911254883],
      "translation": [
        0.005779797211289406, 5.559510707855225, 0.6818264126777649
      ]
    }
  ],
  "materials": [
    {
      "doubleSided": true,
      "extensions": {
        "KHR_materials_specular": {
          "specularColorFactor": [
            1.6599503018401929, 1.6599503018401929, 1.6599503018401929
          ]
        },
        "KHR_materials_ior": {
          "ior": 1.4500000476837158
        }
      },
      "name": "Vue Green 01",
      "pbrMetallicRoughness": {
        "baseColorFactor": [
          0.02810918726027012, 0.22341400384902954, 0.10696297883987427, 1
        ],
        "metallicFactor": 0,
        "roughnessFactor": 0.44999998807907104
      }
    },
    {
      "doubleSided": true,
      "extensions": {
        "KHR_materials_specular": {
          "specularColorFactor": [
            1.6599503018401929, 1.6599503018401929, 1.6599503018401929
          ]
        },
        "KHR_materials_ior": {
          "ior": 1.4500000476837158
        }
      },
      "name": "Vue Green 02",
      "pbrMetallicRoughness": {
        "baseColorFactor": [
          0.01562402956187725, 0.02427019737660885, 0.0363064743578434, 1
        ],
        "metallicFactor": 0,
        "roughnessFactor": 0.44999998807907104
      }
    }
  ],
  "meshes": [
    {
      "name": "Plane.019",
      "primitives": [
        {
          "attributes": {
            "POSITION": 0
          },
          "indices": 1,
          "material": 0
        }
      ]
    },
    {
      "name": "Plane.022",
      "primitives": [
        {
          "attributes": {
            "POSITION": 2
          },
          "indices": 3,
          "material": 1
        }
      ]
    }
  ],
  "accessors": [
    {
      "bufferView": 0,
      "componentType": 5126,
      "count": 92,
      "max": [0.9802116751670837, 0.342885285615921, 0.010867834091186523],
      "min": [-0.9930236339569092, -1.360155701637268, -0.18033695220947266],
      "type": "VEC3"
    },
    {
      "bufferView": 1,
      "componentType": 5123,
      "count": 540,
      "type": "SCALAR"
    },
    {
      "bufferView": 2,
      "componentType": 5126,
      "count": 92,
      "max": [0.5906655788421631, 0.3424592912197113, 0.17299580574035645],
      "min": [-0.5963312387466431, -0.6885403990745544, 0.0010690689086914062],
      "type": "VEC3"
    },
    {
      "bufferView": 3,
      "componentType": 5123,
      "count": 540,
      "type": "SCALAR"
    }
  ],
  "bufferViews": [
    {
      "buffer": 0,
      "byteLength": 1104,
      "byteOffset": 0,
      "target": 34962
    },
    {
      "buffer": 0,
      "byteLength": 1080,
      "byteOffset": 1104,
      "target": 34963
    },
    {
      "buffer": 0,
      "byteLength": 1104,
      "byteOffset": 2184,
      "target": 34962
    },
    {
      "buffer": 0,
      "byteLength": 1080,
      "byteOffset": 3288,
      "target": 34963
    }
  ],
  "buffers": [
    {
      "byteLength": 4368,
      "uri": "data:application/octet-stream;base64,"
    }
  ]
}
